<svg width="30" height="30" viewBox="0 0 30 30" fill="none" xmlns="http://www.w3.org/2000/svg">
<g id="event_available">
<mask id="mask0_1_629" style="mask-type:alpha" maskUnits="userSpaceOnUse" x="0" y="0" width="30" height="30">
<rect id="Bounding box" y="6.10352e-05" width="30" height="30" fill="#0D70F3"/>
</mask>
<g mask="url(#mask0_1_629)">
<path id="event_available_2" d="M13.6875 23.5626L8.625 18.5001L10.9688 16.1563L13.6875 18.8751L19.0938 13.4688L21.4375 15.8126L13.6875 23.5626ZM6.0625 28.4376C5.14583 28.4376 4.36458 28.1146 3.71875 27.4688C3.07292 26.823 2.75 26.0417 2.75 25.1251V7.25006C2.75 6.33339 3.07292 5.55214 3.71875 4.90631C4.36458 4.26048 5.14583 3.93756 6.0625 3.93756H6.3125V1.56256H9.625V3.93756H20.375V1.56256H23.6875V3.93756H23.9375C24.8542 3.93756 25.6354 4.26048 26.2812 4.90631C26.9271 5.55214 27.25 6.33339 27.25 7.25006V25.1251C27.25 26.0417 26.9271 26.823 26.2812 27.4688C25.6354 28.1146 24.8542 28.4376 23.9375 28.4376H6.0625ZM6.0625 25.1251H23.9375V11.8751H6.0625V25.1251Z" fill="#3EAE3C"/>
</g>
</g>
</svg>
