<svg width="60" height="24" viewBox="0 0 60 24" fill="none" xmlns="http://www.w3.org/2000/svg">
<g id="Group 5040">
<g id="Group 5038">
<rect id="Rectangle 23" x="36.5" y="0.5" width="23" height="23" rx="4.5" fill="#D32053" stroke="white"/>
<g id="close">
<mask id="mask0_1_690" style="mask-type:alpha" maskUnits="userSpaceOnUse" x="40" y="4" width="16" height="16">
<rect id="Bounding box" x="40" y="4" width="16" height="16" fill="white"/>
</mask>
<g mask="url(#mask0_1_690)">
<path id="close_2" d="M48.0005 12.9329L44.7339 16.1995C44.6116 16.3218 44.4561 16.3829 44.2672 16.3829C44.0783 16.3829 43.9227 16.3218 43.8005 16.1995C43.6783 16.0773 43.6172 15.9218 43.6172 15.7329C43.6172 15.544 43.6783 15.3884 43.8005 15.2662L47.0672 11.9995L43.8005 8.73288C43.6783 8.61066 43.6172 8.4551 43.6172 8.26621C43.6172 8.07732 43.6783 7.92177 43.8005 7.79954C43.9227 7.67732 44.0783 7.61621 44.2672 7.61621C44.4561 7.61621 44.6116 7.67732 44.7339 7.79954L48.0005 11.0662L51.2672 7.79954C51.3894 7.67732 51.545 7.61621 51.7339 7.61621C51.9227 7.61621 52.0783 7.67732 52.2005 7.79954C52.3227 7.92177 52.3839 8.07732 52.3839 8.26621C52.3839 8.4551 52.3227 8.61066 52.2005 8.73288L48.9339 11.9995L52.2005 15.2662C52.3227 15.3884 52.3839 15.544 52.3839 15.7329C52.3839 15.9218 52.3227 16.0773 52.2005 16.1995C52.0783 16.3218 51.9227 16.3829 51.7339 16.3829C51.545 16.3829 51.3894 16.3218 51.2672 16.1995L48.0005 12.9329Z" fill="white"/>
</g>
</g>
</g>
<g id="Group 5039">
<rect id="Rectangle 23_2" x="0.5" y="0.5" width="23" height="23" rx="4.5" fill="white" stroke="white"/>
<g id="shuffle">
<mask id="mask1_1_690" style="mask-type:alpha" maskUnits="userSpaceOnUse" x="4" y="4" width="16" height="16">
<rect id="Bounding box_2" x="4" y="4" width="16" height="16" fill="#D9D9D9"/>
</mask>
<g mask="url(#mask1_1_690)">
<path id="shuffle_2" d="M10.1159 11.0503L7.13255 8.06699C7.01033 7.94477 6.94922 7.78921 6.94922 7.60033C6.94922 7.41144 7.01033 7.25588 7.13255 7.13366C7.25477 7.01144 7.41033 6.95033 7.59922 6.95033C7.78811 6.95033 7.94366 7.01144 8.06589 7.13366L11.0492 10.117L10.1159 11.0503ZM13.9992 17.3337C13.8103 17.3337 13.652 17.2698 13.5242 17.142C13.3964 17.0142 13.3326 16.8559 13.3326 16.667C13.3326 16.4781 13.3964 16.3198 13.5242 16.192C13.652 16.0642 13.8103 16.0003 13.9992 16.0003H15.0659L12.9492 13.8837L13.8992 12.9337L15.9992 15.0337V14.0003C15.9992 13.8114 16.0631 13.6531 16.1909 13.5253C16.3187 13.3975 16.477 13.3337 16.6659 13.3337C16.8548 13.3337 17.0131 13.3975 17.1409 13.5253C17.2687 13.6531 17.3326 13.8114 17.3326 14.0003V16.667C17.3326 16.8559 17.2687 17.0142 17.1409 17.142C17.0131 17.2698 16.8548 17.3337 16.6659 17.3337H13.9992ZM7.13255 16.867C7.01033 16.7448 6.94922 16.5892 6.94922 16.4003C6.94922 16.2114 7.01033 16.0559 7.13255 15.9337L15.0659 8.00033H13.9992C13.8103 8.00033 13.652 7.93644 13.5242 7.80866C13.3964 7.68088 13.3326 7.52255 13.3326 7.33366C13.3326 7.14477 13.3964 6.98644 13.5242 6.85866C13.652 6.73088 13.8103 6.66699 13.9992 6.66699H16.6659C16.8548 6.66699 17.0131 6.73088 17.1409 6.85866C17.2687 6.98644 17.3326 7.14477 17.3326 7.33366V10.0003C17.3326 10.1892 17.2687 10.3475 17.1409 10.4753C17.0131 10.6031 16.8548 10.667 16.6659 10.667C16.477 10.667 16.3187 10.6031 16.1909 10.4753C16.0631 10.3475 15.9992 10.1892 15.9992 10.0003V8.93366L8.06589 16.867C7.94366 16.9892 7.78811 17.0503 7.59922 17.0503C7.41033 17.0503 7.25477 16.9892 7.13255 16.867Z" fill="#1C1B1F"/>
</g>
</g>
</g>
</g>
</svg>
