<svg width="30" height="30" viewBox="0 0 30 30" fill="none" xmlns="http://www.w3.org/2000/svg">
<g id="Group 6">
<rect id="Rectangle 2" x="0.499113" y="0.499113" width="29.0018" height="29.0018" rx="4.50089" fill="white" stroke="#DFDBE8" stroke-width="0.998226"/>
<g id="favorite">
<mask id="mask0_1_569" style="mask-type:alpha" maskUnits="userSpaceOnUse" x="7" y="7" width="16" height="16">
<rect id="Bounding box" x="7" y="7" width="16" height="16" fill="#5C6978"/>
</mask>
<g mask="url(#mask0_1_569)">
<g id="favorite_2">
<path d="M15.0007 21.4953L14.034 20.623C12.2895 19.0572 10.9033 17.6954 9.87532 16.5376C8.84776 15.3803 8.33398 14.1586 8.33398 12.8724C8.33398 11.8211 8.68398 10.9431 9.38398 10.2385C10.084 9.53394 10.9562 9.18164 12.0007 9.18164C12.5895 9.18164 13.1451 9.30735 13.6673 9.55877C14.1895 9.81063 14.634 10.1547 15.0007 10.5908C15.3673 10.1547 15.8118 9.81063 16.334 9.55877C16.8562 9.30735 17.4118 9.18164 18.0007 9.18164C19.0451 9.18164 19.9173 9.53394 20.6173 10.2385C21.3173 10.9431 21.6673 11.8211 21.6673 12.8724C21.6673 14.1586 21.1535 15.3803 20.126 16.5376C19.098 17.6954 17.7118 19.0572 15.9673 20.623L15.0007 21.4953ZM15.0007 19.6835C16.5895 18.2296 17.8758 16.977 18.8593 15.9256C19.8424 14.8743 20.334 13.8566 20.334 12.8724C20.334 12.2013 20.1118 11.6421 19.6673 11.1948C19.2229 10.7474 18.6673 10.5237 18.0007 10.5237C17.4784 10.5237 16.9951 10.6718 16.5507 10.968C16.1062 11.2646 15.8007 11.6421 15.634 12.1007H14.3673C14.2007 11.6421 13.8951 11.2646 13.4507 10.968C13.0062 10.6718 12.5229 10.5237 12.0007 10.5237C11.334 10.5237 10.7784 10.7474 10.334 11.1948C9.88954 11.6421 9.66732 12.2013 9.66732 12.8724C9.66732 13.8566 10.1591 14.8743 11.1427 15.9256C12.1258 16.977 13.4118 18.2296 15.0007 19.6835Z" fill="#D32053"/>
</g>
</g>
</g>
</g>
</svg>
