<svg width="139" height="20" viewBox="0 0 139 20" fill="none" xmlns="http://www.w3.org/2000/svg">
<g id="Group 1413371333">
<path id="Vector" fill-rule="evenodd" clip-rule="evenodd" d="M78.425 6.969H82.139V8.819C82.674 7.755 84.046 6.799 86.107 6.799C90.058 6.799 90.996 8.917 90.996 12.803V20H86.996V13.688C86.996 11.475 86.461 10.227 85.099 10.227C83.21 10.227 82.425 11.572 82.425 13.687V20H78.425V6.969ZM71.566 19.83H75.566V6.799H71.566V19.83ZM76.139 2.55C76.1392 2.88528 76.0727 3.21724 75.9434 3.52659C75.8142 3.83594 75.6247 4.11651 75.386 4.352C74.9024 4.83262 74.2478 5.10165 73.566 5.1C72.8854 5.09954 72.2323 4.8312 71.748 4.353C71.5102 4.11671 71.3214 3.83582 71.1924 3.52643C71.0633 3.21704 70.9966 2.88522 70.996 2.55C70.996 1.873 71.266 1.225 71.749 0.747C72.2329 0.268158 72.8863 -0.000299211 73.567 2.50265e-07C74.249 2.50265e-07 74.903 0.269 75.386 0.747C75.868 1.225 76.139 1.873 76.139 2.55Z" fill="white"/>
<path id="Icon" fill-rule="evenodd" clip-rule="evenodd" d="M11.6667 7.69231H7.77778V4.61538C7.77778 3.76615 8.47467 3.84615 9.33333 3.84615H10.8889V0H7.77778C6.5401 0 5.35312 0.486263 4.47795 1.35181C3.60278 2.21737 3.11111 3.39131 3.11111 4.61538V7.69231H0V11.5385H3.11111V20H7.77778V11.5385H10.1111L11.6667 7.69231Z" fill="white"/>
<path id="Vector_2" d="M40.996 0C38.2823 0 37.941 0.0125 36.8748 0.06C35.8085 0.11 35.0823 0.2775 34.446 0.525C33.7786 0.776024 33.1741 1.16978 32.6748 1.67875C32.1661 2.17837 31.7724 2.7828 31.521 3.45C31.2735 4.085 31.1048 4.8125 31.056 5.875C31.0085 6.94375 30.996 7.28375 30.996 10.0013C30.996 12.7163 31.0085 13.0563 31.056 14.1225C31.106 15.1875 31.2735 15.9137 31.521 16.55C31.7773 17.2075 32.1185 17.765 32.6748 18.3212C33.2298 18.8775 33.7873 19.22 34.4448 19.475C35.0823 19.7225 35.8073 19.8912 36.8723 19.94C37.9398 19.9875 38.2798 20 40.996 20C43.7123 20 44.051 19.9875 45.1185 19.94C46.1823 19.89 46.911 19.7225 47.5473 19.475C48.2142 19.2239 48.8183 18.8301 49.3173 18.3212C49.8735 17.765 50.2148 17.2075 50.471 16.55C50.7173 15.9137 50.886 15.1875 50.936 14.1225C50.9835 13.0563 50.996 12.7163 50.996 10C50.996 7.28375 50.9835 6.94375 50.936 5.87625C50.886 4.8125 50.7173 4.085 50.471 3.45C50.2197 2.78278 49.826 2.17834 49.3173 1.67875C48.8181 1.16959 48.2135 0.775807 47.546 0.525C46.9085 0.2775 46.181 0.10875 45.1173 0.06C44.0498 0.0125 43.711 0 40.9935 0H40.9973H40.996ZM40.0998 1.8025H40.9973C43.6673 1.8025 43.9835 1.81125 45.0373 1.86C46.0123 1.90375 46.5423 2.0675 46.8948 2.20375C47.361 2.385 47.6948 2.6025 48.0448 2.9525C48.3948 3.3025 48.611 3.635 48.7923 4.1025C48.9298 4.45375 49.0923 4.98375 49.136 5.95875C49.1848 7.0125 49.1948 7.32875 49.1948 9.9975C49.1948 12.6663 49.1848 12.9837 49.136 14.0375C49.0923 15.0125 48.9285 15.5413 48.7923 15.8938C48.6319 16.3279 48.3761 16.7205 48.0435 17.0425C47.6935 17.3925 47.361 17.6088 46.8935 17.79C46.5435 17.9275 46.0135 18.09 45.0373 18.135C43.9835 18.1825 43.6673 18.1938 40.9973 18.1938C38.3273 18.1938 38.0098 18.1825 36.956 18.135C35.981 18.09 35.4523 17.9275 35.0998 17.79C34.6654 17.6299 34.2724 17.3745 33.9498 17.0425C33.617 16.72 33.3607 16.3271 33.1998 15.8925C33.0635 15.5412 32.8998 15.0113 32.856 14.0363C32.8085 12.9825 32.7985 12.6663 32.7985 9.995C32.7985 7.325 32.8085 7.01 32.856 5.95625C32.901 4.98125 33.0635 4.45125 33.201 4.09875C33.3823 3.6325 33.5998 3.29875 33.9498 2.94875C34.2998 2.59875 34.6323 2.3825 35.0998 2.20125C35.4523 2.06375 35.981 1.90125 36.956 1.85625C37.8785 1.81375 38.236 1.80125 40.0998 1.8V1.8025ZM46.3348 3.4625C46.1772 3.4625 46.0211 3.49354 45.8755 3.55384C45.73 3.61415 45.5977 3.70254 45.4862 3.81397C45.3748 3.9254 45.2864 4.05769 45.2261 4.20328C45.1658 4.34887 45.1348 4.50491 45.1348 4.6625C45.1348 4.82009 45.1658 4.97613 45.2261 5.12172C45.2864 5.26731 45.3748 5.3996 45.4862 5.51103C45.5977 5.62246 45.73 5.71085 45.8755 5.77116C46.0211 5.83146 46.1772 5.8625 46.3348 5.8625C46.653 5.8625 46.9583 5.73607 47.1833 5.51103C47.4083 5.28598 47.5348 4.98076 47.5348 4.6625C47.5348 4.34424 47.4083 4.03902 47.1833 3.81397C46.9583 3.58893 46.653 3.4625 46.3348 3.4625ZM40.9973 4.865C40.3161 4.85437 39.6396 4.97936 39.0072 5.23268C38.3748 5.486 37.7992 5.86259 37.3137 6.34053C36.8283 6.81847 36.4427 7.38821 36.1796 8.01657C35.9164 8.64494 35.7809 9.31938 35.7809 10.0006C35.7809 10.6819 35.9164 11.3563 36.1796 11.9847C36.4427 12.613 36.8283 13.1828 37.3137 13.6607C37.7992 14.1387 38.3748 14.5153 39.0072 14.7686C39.6396 15.0219 40.3161 15.1469 40.9973 15.1363C42.3454 15.1152 43.6313 14.5649 44.5772 13.6041C45.5232 12.6432 46.0534 11.349 46.0534 10.0006C46.0534 8.65228 45.5232 7.35802 44.5772 6.39719C43.6313 5.43636 42.3454 4.88603 40.9973 4.865ZM40.9973 6.66625C41.8814 6.66625 42.7294 7.01748 43.3546 7.64268C43.9798 8.26788 44.331 9.11583 44.331 10C44.331 10.8842 43.9798 11.7321 43.3546 12.3573C42.7294 12.9825 41.8814 13.3337 40.9973 13.3337C40.1131 13.3337 39.2651 12.9825 38.64 12.3573C38.0148 11.7321 37.6635 10.8842 37.6635 10C37.6635 9.11583 38.0148 8.26788 38.64 7.64268C39.2651 7.01748 40.1131 6.66625 40.9973 6.66625Z" fill="white"/>
<g id="feYoutube0">
<g id="feYoutube1">
<path id="feYoutube2" fill-rule="evenodd" clip-rule="evenodd" d="M122.105 13.6897V5.69885L129.669 9.70852L122.105 13.6897ZM138.716 4.31537C138.716 4.31537 138.443 2.35461 137.603 1.49154C136.539 0.359732 135.345 0.354045 134.797 0.287218C130.88 1.90687e-07 125.002 0 125.002 0H124.99C124.99 0 119.113 1.90687e-07 115.195 0.287218C114.647 0.354045 113.454 0.358311 112.389 1.49154C111.549 2.35461 111.276 4.31537 111.276 4.31537C111.276 4.31537 110.996 6.61595 110.996 8.91796V11.0749C110.996 13.3755 111.276 15.6775 111.276 15.6775C111.276 15.6775 111.549 17.6369 112.389 18.4999C113.453 19.6332 114.853 19.5962 115.476 19.7156C117.716 19.9332 124.996 20 124.996 20C124.996 20 130.88 19.9915 134.797 19.7043C135.345 19.6374 136.539 19.6332 137.603 18.4999C138.443 17.6369 138.716 15.6775 138.716 15.6775C138.716 15.6775 138.996 13.3755 138.996 11.0749V8.91796C138.996 6.61595 138.716 4.31537 138.716 4.31537Z" fill="white"/>
</g>
</g>
</g>
</svg>
