<svg width="5" height="32" viewBox="0 0 5 32" fill="none" xmlns="http://www.w3.org/2000/svg">
<path id="Vector" d="M2.33078 0.179944C2.64027 0.175279 2.94741 0.234302 3.23312 0.35334C3.51883 0.472378 3.77701 0.64889 3.99162 0.871912C4.21328 1.08802 4.38868 1.34694 4.50713 1.63294C4.62558 1.91895 4.68462 2.22606 4.68066 2.5356C4.67634 3.15649 4.42705 3.75057 3.987 4.18864C3.54695 4.6267 2.95173 4.87333 2.33078 4.87488C2.02518 4.87797 1.7222 4.81829 1.44061 4.69952C1.15902 4.58074 0.904821 4.40543 0.693757 4.18441C0.471992 3.97127 0.296096 3.71508 0.176845 3.43156C0.0575943 3.14804 -0.00250455 2.84316 0.000247883 2.5356C-0.00432529 2.22532 0.0544226 1.91735 0.172894 1.63054C0.291365 1.34372 0.467073 1.08407 0.689288 0.867443C0.901124 0.646417 1.15617 0.471331 1.43856 0.353059C1.72095 0.234786 2.02465 0.175857 2.33078 0.179944ZM0.915498 9.29453H3.76393V31.43H0.915498V9.29453Z" fill="white"/>
</svg>
