<svg width="36" height="36" viewBox="0 0 36 36" fill="none" xmlns="http://www.w3.org/2000/svg">
<g id="Group 1413371169">
<rect id="Rectangle 5968" width="36" height="36" rx="5" fill="white"/>
<g id="feYoutube0">
<g id="feYoutube1">
<path id="feYoutube2" fill-rule="evenodd" clip-rule="evenodd" d="M16.1415 20.6654V15.6074L21.0042 18.1454L16.1415 20.6654ZM26.82 14.7317C26.82 14.7317 26.6445 13.4906 26.1045 12.9443C25.4205 12.2279 24.6528 12.2243 24.3009 12.182C21.7827 12.0002 18.0036 12.0002 18.0036 12.0002H17.9964C17.9964 12.0002 14.2182 12.0002 11.6991 12.182C11.3472 12.2243 10.5804 12.227 9.8955 12.9443C9.3555 13.4906 9.18 14.7317 9.18 14.7317C9.18 14.7317 9 16.1879 9 17.645V19.0103C9 20.4665 9.18 21.9236 9.18 21.9236C9.18 21.9236 9.3555 23.1638 9.8955 23.7101C10.5795 24.4274 11.4795 24.404 11.88 24.4796C13.32 24.6173 18 24.6596 18 24.6596C18 24.6596 21.7827 24.6542 24.3009 24.4724C24.6528 24.4301 25.4205 24.4274 26.1045 23.7101C26.6445 23.1638 26.82 21.9236 26.82 21.9236C26.82 21.9236 27 20.4665 27 19.0103V17.645C27 16.1879 26.82 14.7317 26.82 14.7317Z" fill="black"/>
</g>
</g>
</g>
</svg>
